<svg fill="#ff7b47" xmlns="http://www.w3.org/2000/svg" viewBox="0 0 512 512"><path d="M352.8 183.3c0-53.4-43.4-96.8-96.8-96.8s-96.8 43.4-96.8 96.8 43.4 96.8 96.8 96.8 96.8-43.4 96.8-96.8zm-173.4 0c0-42.2 34.4-76.6 76.6-76.6 42.2 0 76.6 34.4 76.6 76.6 0 42.2-34.4 76.6-76.6 76.6-42.2 0-76.6-34.3-76.6-76.6z"/><path d="m368.3 272.1 16.9-7.1c4.2-1.8 6.7-6.1 6.1-10.6l-4.5-36 21.9-29c2.7-3.6 2.7-8.6 0-12.2l-21.9-29 4.5-36.1c.6-4.5-1.9-8.8-6.1-10.6l-33.5-14.1-14.1-33.5c-1.8-4.2-6.1-6.7-10.6-6.1l-36 4.5-29-21.9a10.2 10.2 0 0 0-12.2 0l-29 21.9-36-4.5c-4.5-.6-8.8 1.9-10.6 6.1l-14.1 33.5-33.5 14.1c-4.2 1.8-6.7 6.1-6.1 10.6l4.5 36.1-21.9 29a10.2 10.2 0 0 0 0 12.2l21.9 29-4.5 36c-.6 4.5 1.9 8.8 6.1 10.6l16.9 7.1-81.1 154.6c-2 3.9-1.3 8.6 1.7 11.8 3.1 3.1 7.8 3.9 11.7 1.9l57-28.8 8.2 63c.6 4.4 3.9 7.9 8.2 8.6.6.1 1.2.2 1.8.2 3.7 0 7.2-2 8.9-5.4l79-150.2 10.9 8.3c1.8 1.4 3.9 2 6.1 2 2.1 0 4.3-.7 6.1-2l10.9-8.3 79 150.2c1.8 3.4 5.2 5.4 8.9 5.4.6 0 1.2 0 1.8-.2 4.3-.8 7.7-4.3 8.2-8.6l8.2-63 57 28.8c3.9 2 8.7 1.2 11.7-1.9 3.1-3.1 3.8-7.9 1.7-11.8l-81.1-154.6zM157 440.5l-5.9-45.5c-.4-3.2-2.4-6.1-5.3-7.6s-6.3-1.6-9.3-.1l-41.6 21 66.5-126.5 12.9 30.8c1.8 4.2 6.1 6.7 10.6 6.1l36-4.5 1.8 1.3-65.7 125zm99-125.1-13.9-10.5c-.1-.1-.3-.2-.4-.3l-11.9-9c-1.8-1.3-3.9-2-6.1-2-.4 0-.8 0-1.3.1l-32.5 4.1-12.7-30.2c-1-2.4-3-4.4-5.4-5.4l-30.2-12.7 4.1-32.5c.3-2.6-.4-5.2-2-7.3L124 183.3l19.8-26.2c1.6-2.1 2.3-4.7 2-7.3l-4.1-32.5 30.2-12.7c2.4-1 4.4-3 5.4-5.4L190 69l32.5 4.1c2.6.3 5.2-.4 7.3-2L256 51.3l26.2 19.8c2.1 1.6 4.7 2.3 7.3 2L322 69l12.7 30.2c1 2.4 3 4.4 5.4 5.4l30.2 12.7-4.1 32.5c-.3 2.6.4 5.2 2 7.3l19.8 26.2-19.8 26.2c-1.6 2.1-2.3 4.7-2 7.3l4.1 32.5-30.2 12.7c-2.4 1-4.4 3-5.4 5.4L322 297.7l-32.5-4.1c-2.6-.4-5.2.4-7.3 2l-11.9 9c-.1.1-.2.2-.4.3L256 315.4zm119.5 71.8c-2.9-1.5-6.4-1.4-9.3.1-2.9 1.5-4.9 4.4-5.3 7.6l-5.9 45.5-65.7-125 1.8-1.3 36 4.5c4.5.6 8.8-1.9 10.6-6.1l12.9-30.8 66.5 126.5-41.6-21z"/></svg>