<svg fill="#ff7b47" xmlns="http://www.w3.org/2000/svg" viewBox="0 0 48 48"><path d="M44 3H4a4 4 0 0 0-4 4v30a4 4 0 0 0 4 4h1v3a1 1 0 0 0 1 1h6a1 1 0 0 0 1-1v-3h22v3a1 1 0 0 0 1 1h6a1 1 0 0 0 1-1v-3h1a4 4 0 0 0 4-4V7a4 4 0 0 0-4-4ZM11 43H7v-2h4Zm30 0h-4v-2h4Zm5-6a2 2 0 0 1-2 2H4a2 2 0 0 1-2-2V7a2 2 0 0 1 2-2h40a2 2 0 0 1 2 2Z"/><path d="M42 8H7a1 1 0 0 0-1 1v6H5a1 1 0 0 0 0 2h1v10H5a1 1 0 0 0 0 2h1v6a1 1 0 0 0 1 1h35a1 1 0 0 0 1-1V9a1 1 0 0 0-1-1Zm-1 26H8v-5h1a1 1 0 0 0 0-2H8V17h1a1 1 0 0 0 0-2H8v-5h33Z"/><path d="M20.07 26A8 8 0 1 0 27 14a8 8 0 0 0-6.93 12Zm2.31-.18 2.68-1.55a3 3 0 0 0 3.88 0l2.68 1.55a6 6 0 0 1-9.24 0ZM27 21a1 1 0 0 1 0 2 1 1 0 0 1 0-2Zm5.62 3.09-2.68-1.54A3 3 0 0 0 28 19.18v-3.09a6 6 0 0 1 4.62 8Zm-6.62-8v3.09a3 3 0 0 0-1.94 3.37l-2.68 1.54a6 6 0 0 1 4.62-8Z"/></svg>