<svg id="Layer_1" data-name="Layer 1" xmlns="http://www.w3.org/2000/svg" viewBox="0 0 139 139"><defs><style>.cls-1{fill:#f8ddc8;}.cls-2{fill:#ee702c;}</style></defs><circle class="cls-1" cx="69.5" cy="69.5" r="69.5"/><path class="cls-2" d="M92.91,68A23,23,0,0,0,76.27,47.88,22.42,22.42,0,0,0,70.5,47h-1a22.5,22.5,0,0,0-5.78.87A23,23,0,0,0,47.09,68c-.06.66-.09,1.33-.09,2,0,.34,0,.67,0,1A23,23,0,0,0,62,91.55a22.41,22.41,0,0,0,5.68,1.33,23.07,23.07,0,0,0,4.7,0A22.41,22.41,0,0,0,78,91.55,23,23,0,0,0,93,71c0-.33,0-.66,0-1C93,69.33,93,68.66,92.91,68Zm-20,21.78-.13,0a19.7,19.7,0,0,1-5.6,0l-.13,0A20,20,0,0,1,50,71c0-.33,0-.67,0-1a18.86,18.86,0,0,1,.1-2A20,20,0,0,1,65.5,50.52,17.77,17.77,0,0,1,68.78,50c.4,0,.81,0,1.22,0s.82,0,1.22,0a17.77,17.77,0,0,1,3.28.48A20,20,0,0,1,89.9,68a18.86,18.86,0,0,1,.1,2c0,.33,0,.67,0,1A20,20,0,0,1,72.93,89.78Z"/><path class="cls-2" d="M72.87,89.83l-.07,0A22.75,22.75,0,0,1,70,88.2,22.45,22.45,0,0,1,60.06,71Q60,70.25,60,69.5t.06-1.5A22.45,22.45,0,0,1,70,50.8c.4-.27.8-.52,1.22-.76a18.6,18.6,0,0,1,1.65-.87,22.05,22.05,0,0,1,3.4-1.29A22.42,22.42,0,0,0,70.5,47h0l-.49.28a24.85,24.85,0,0,0-2.87,1.88c-.56.43-1.11.87-1.63,1.35A25.42,25.42,0,0,0,57,68c0,.5,0,1,0,1.5s0,1,0,1.5a25.49,25.49,0,0,0,10,18.78l.06,0A24.85,24.85,0,0,0,70,91.71a20.57,20.57,0,0,0,2.35,1.17A22.41,22.41,0,0,0,78,91.55,21.89,21.89,0,0,1,72.87,89.83Z"/><path class="cls-2" d="M83,68A25.42,25.42,0,0,0,74.5,50.52c-.52-.48-1.07-.92-1.63-1.35A24.85,24.85,0,0,0,70,47.29L69.51,47a22.5,22.5,0,0,0-5.78.87,22.05,22.05,0,0,1,3.4,1.29,18.6,18.6,0,0,1,1.65.87c.42.24.82.49,1.22.76A22.45,22.45,0,0,1,79.94,68q.06.75.06,1.5T79.94,71A22.45,22.45,0,0,1,70,88.2a22.75,22.75,0,0,1-2.8,1.6l-.07,0A21.89,21.89,0,0,1,62,91.55a22.41,22.41,0,0,0,5.68,1.33A20.57,20.57,0,0,0,70,91.71a24.85,24.85,0,0,0,2.87-1.88l.06,0A25.49,25.49,0,0,0,83,71c0-.5,0-1,0-1.5S83,68.5,83,68Z"/><path class="cls-2" d="M92.91,68c.06.66.09,1.33.09,2,0,.34,0,.67,0,1H47c0-.33,0-.66,0-1,0-.67,0-1.34.09-2Z"/></svg>