<svg id="Layer_1" data-name="Layer 1" xmlns="http://www.w3.org/2000/svg" viewBox="0 0 90 90"><defs><style>.cls-1{fill:#3aaa35;opacity:0.25;}.cls-2{fill:none;stroke:#3aaa35;stroke-miterlimit:10;}</style></defs><rect class="cls-1" width="90" height="90" rx="12.96"/><path class="cls-2" d="M38.07,45h-.75l.38.65h.75ZM37,43.2l-.37.65.37.65.38-.65ZM44.37,42v.65h8.11l-.31.54-.38.65L51.1,45l-.37.65L44.8,56l-.21.38L44.37,56v1.3l.22.37.21-.37,6.68-11.56.37-.65.32-.54.37-.65L53.6,42ZM37.7,42l-.38.65h.75l.38-.65Z"/><path class="cls-2" d="M51.48,42h-.75l.37.65h.75Zm.69,1.19-.38.65.38.65.37-.65Zm-14.78.65.68-1.19.38-.65,5.92-10.26.22-.37.21.37v-1.3l-.21-.37-.22.37L37.7,42l-.38.65L37,43.2l-.37.65-1.07,1.84H44.8V45H36.7L37,44.5ZM51.1,45l-.37.65h.75l.37-.65Zm-13,0,.38.65H44.8V45Z"/><polygon class="cls-2" points="44.8 29.61 44.8 42.66 44.37 42.66 44.37 30.45 44.59 30.08 44.8 29.61"/><polygon class="cls-2" points="44.8 45.04 44.8 57.25 44.59 57.62 44.37 58.03 44.37 45.04 44.8 45.04"/></svg>